<svg xmlns="http://www.w3.org/2000/svg" height="24px" viewBox="0 -960 960 960" width="24px" fill="#1f1f1f"><path d="m272-440 208 120 208-120-168-97v137h-80v-137l-168 97Zm168-189v-17q-44-13-72-49.5T340-780q0-58 41-99t99-41q58 0 99 41t41 99q0 48-28 84.5T520-646v17l280 161q19 11 29.5 29.5T840-398v76q0 22-10.5 40.5T800-252L520-91q-19 11-40 11t-40-11L160-252q-19-11-29.5-29.5T120-322v-76q0-22 10.5-40.5T160-468l280-161Zm0 378L200-389v67l280 162 280-162v-67L520-251q-19 11-40 11t-40-11Zm82.5-486.5Q540-755 540-780t-17.5-42.5Q505-840 480-840t-42.5 17.5Q420-805 420-780t17.5 42.5Q455-720 480-720t42.5-17.5ZM480-160Z"/></svg>